<?xml version="1.0" encoding="utf-8"?>
<!-- Generator: Adobe Illustrator 23.0.0, SVG Export Plug-In . SVG Version: 6.00 Build 0)  -->
<svg version="1.1" id="Слой_1" xmlns="http://www.w3.org/2000/svg" xmlns:xlink="http://www.w3.org/1999/xlink" x="0px" y="0px"
	 viewBox="0 0 65.7 65.8" style="enable-background:new 0 0 65.7 65.8;" xml:space="preserve">
<style type="text/css">
	.st0{clip-path:url(#SVGID_2_);fill:#FBBC05;}
	.st1{clip-path:url(#SVGID_4_);fill:#EA4335;}
	.st2{clip-path:url(#SVGID_6_);fill:#34A853;}
	.st3{clip-path:url(#SVGID_8_);fill:#4285F4;}
</style>
<g>
	<g>
		<g>
			<defs>
				<path id="SVGID_1_" d="M63.1,26.9H33.6v12.2h16.9c-1.6,7.8-8.2,12.2-16.9,12.2c-10.3,0-18.7-8.3-18.7-18.7s8.3-18.7,18.7-18.7
					c4.5,0,8.5,1.6,11.6,4.2l9.2-9.2C48.8,4,41.7,1,33.6,1C16.1,1,2,15.1,2,32.6s14.1,31.6,31.6,31.6c15.8,0,30.2-11.5,30.2-31.6
					C63.8,30.7,63.5,28.7,63.1,26.9z"/>
			</defs>
			<clipPath id="SVGID_2_">
				<use xlink:href="#SVGID_1_"  style="overflow:visible;"/>
			</clipPath>
			<path class="st0" d="M-0.9,51.3V13.9l24.4,18.7L-0.9,51.3z"/>
		</g>
	</g>
	<g>
		<g>
			<defs>
				<path id="SVGID_3_" d="M63.1,26.9H33.6v12.2h16.9c-1.6,7.8-8.2,12.2-16.9,12.2c-10.3,0-18.7-8.3-18.7-18.7s8.3-18.7,18.7-18.7
					c4.5,0,8.5,1.6,11.6,4.2l9.2-9.2C48.8,4,41.7,1,33.6,1C16.1,1,2,15.1,2,32.6s14.1,31.6,31.6,31.6c15.8,0,30.2-11.5,30.2-31.6
					C63.8,30.7,63.5,28.7,63.1,26.9z"/>
			</defs>
			<clipPath id="SVGID_4_">
				<use xlink:href="#SVGID_3_"  style="overflow:visible;"/>
			</clipPath>
			<path class="st1" d="M-0.9,13.9l24.4,18.7l10.1-8.8l34.5-5.6V-1.9H-0.9C-0.9-1.9-0.9,13.9-0.9,13.9z"/>
		</g>
	</g>
	<g>
		<g>
			<g>
				<defs>
					<path id="SVGID_5_" d="M63.1,26.9H33.6v12.2h16.9c-1.6,7.8-8.2,12.2-16.9,12.2c-10.3,0-18.7-8.3-18.7-18.7s8.3-18.7,18.7-18.7
						c4.5,0,8.5,1.6,11.6,4.2l9.2-9.2C48.8,4,41.7,1,33.6,1C16.1,1,2,15.1,2,32.6s14.1,31.6,31.6,31.6c15.8,0,30.2-11.5,30.2-31.6
						C63.8,30.7,63.5,28.7,63.1,26.9z"/>
				</defs>
				<clipPath id="SVGID_6_">
					<use xlink:href="#SVGID_5_"  style="overflow:visible;"/>
				</clipPath>
				<path class="st2" d="M-0.9,51.3l43.1-33l11.3,1.4L68.1-1.9v68.9H-0.9C-0.9,67.1-0.9,51.3-0.9,51.3z"/>
			</g>
		</g>
	</g>
	<g>
		<g>
			<g>
				<defs>
					<path id="SVGID_7_" d="M63.1,26.9H33.6v12.2h16.9c-1.6,7.8-8.2,12.2-16.9,12.2c-10.3,0-18.7-8.3-18.7-18.7s8.3-18.7,18.7-18.7
						c4.5,0,8.5,1.6,11.6,4.2l9.2-9.2C48.8,4,41.7,1,33.6,1C16.1,1,2,15.1,2,32.6s14.1,31.6,31.6,31.6c15.8,0,30.2-11.5,30.2-31.6
						C63.8,30.7,63.5,28.7,63.1,26.9z"/>
				</defs>
				<clipPath id="SVGID_8_">
					<use xlink:href="#SVGID_7_"  style="overflow:visible;"/>
				</clipPath>
				<path class="st3" d="M68.1,67.1L23.6,32.6l-5.7-4.3l50.3-14.4V67.1z"/>
			</g>
		</g>
	</g>
</g>
</svg>
