<svg id="图层_1" data-name="图层 1" xmlns="http://www.w3.org/2000/svg" viewBox="0 0 200 200"><defs><style>.cls-1{fill:#ffd21e;}.cls-2{fill:#ff9d0b;}.cls-3{fill:#3a3b45;}.cls-4{fill:#ff323d;}</style></defs><title>02-hugging face-撑满</title><path class="cls-1" d="M99.47,175.19c40.56,0,73.45-33.63,73.45-75.1S140,25,99.47,25,26,58.61,26,100.09,58.91,175.19,99.47,175.19Z"/><path class="cls-2" d="M172.92,100.09C172.92,58.61,140,25,99.47,25S26,58.61,26,100.09s32.88,75.1,73.44,75.1S172.92,141.56,172.92,100.09Zm-155.35,0a84.13,84.13,0,0,1,41-72.54,80.34,80.34,0,0,1,81.9,0,84.13,84.13,0,0,1,41,72.54c0,46.25-36.67,83.73-81.9,83.73S17.57,146.34,17.57,100.09Z"/><path class="cls-3" d="M123.33,79.66c2.71,1,3.76,6.61,6.49,5.14a10.88,10.88,0,0,0,5.57-10.57,10.76,10.76,0,0,0-7.43-9.3,10.44,10.44,0,0,0-11.24,3.45,11,11,0,0,0-1.19,12c1.29,2.48,5.39-1.55,7.82-.69Zm-49.77,0c-2.71,1-3.78,6.61-6.49,5.14a10.9,10.9,0,0,1,1.86-19.87,10.45,10.45,0,0,1,11.25,3.45,11,11,0,0,1,1.18,12c-1.29,2.48-5.42-1.55-7.82-.69Z"/><path class="cls-4" d="M99,131.51c20.77,0,27.47-18.93,27.47-28.67,0-5-3.32-3.45-8.65-.77C112.85,104.55,106.23,108,99,108c-15.19,0-27.49-14.87-27.49-5.15S78.17,131.51,99,131.51Z"/><path class="cls-3" d="M83,126.56a18.49,18.49,0,0,1,11.2-9.71c.84-.25,1.71,1.24,2.62,2.77s1.73,3,2.62,3,1.9-1.47,2.81-2.91,1.88-3,2.79-2.71a18.33,18.33,0,0,1,10.57,9c7.89-6.35,10.78-16.72,10.78-23.13,0-5-3.32-3.45-8.65-.77l-.29.15C112.6,104.7,106.09,108,99,108s-13.64-3.29-18.54-5.77c-5.5-2.79-8.94-4.54-8.94.62,0,6.6,3.08,17.43,11.56,23.72Z"/><path class="cls-2" d="M149.14,89.82a7,7,0,0,0,6.86-7h0a6.94,6.94,0,0,0-6.86-7h0a7,7,0,0,0-6.87,7h0a6.94,6.94,0,0,0,6.87,7Zm-98.28,0a7,7,0,0,0,6.87-7h0a7,7,0,0,0-6.86-7h0a6.94,6.94,0,0,0-6.86,7h0a6.93,6.93,0,0,0,6.86,7ZM36.72,113.58a10.89,10.89,0,0,0-8.6,4,13.13,13.13,0,0,0-2.82,8.12,14.86,14.86,0,0,0-4.09-.64,11.08,11.08,0,0,0-8.33,3.59,12.75,12.75,0,0,0-1.69,15.13,11.42,11.42,0,0,0-3.78,6.09A12.8,12.8,0,0,0,9.1,160.16,11.47,11.47,0,0,0,8.32,171c2.16,5,7.54,9,18,13.19,6.49,2.63,12.44,4.32,12.49,4.34A91.24,91.24,0,0,0,61.91,192c12.39,0,21.25-3.89,26.34-11.54,8.2-12.3,7-23.56-3.59-34.41-5.86-6-9.77-14.84-10.58-16.79-1.65-5.75-6-12.15-13.2-12.15a12,12,0,0,0-9.72,5.32,28.52,28.52,0,0,0-6-6.1,15.47,15.47,0,0,0-8.39-2.74Zm0,8.66a7.59,7.59,0,0,1,3.84,1.39c4.53,3,13.22,18.23,16.41,24.17a5.12,5.12,0,0,0,4.52,2.83c3.27,0,5.82-3.3.31-7.52-8.27-6.33-5.37-16.69-1.43-17.31a1.84,1.84,0,0,1,.51,0c3.6,0,5.18,6.34,5.18,6.34S70.71,144,78.69,152.18s8.39,14.71,2.59,23.42c-4,5.94-11.58,7.73-19.37,7.73-8.06,0-16.33-1.94-21-3.15-.23-.07-28.43-8.22-24.85-15.13a2.91,2.91,0,0,1,2.83-1.65c5,0,14.15,7.65,18.11,7.65a1.65,1.65,0,0,0,1.76-1.29c1.66-6.16-25.49-8.75-23.21-17.66a2.78,2.78,0,0,1,3-2.2c6.63,0,21.55,11.95,24.69,11.95a.55.55,0,0,0,.5-.21c1.57-2.6.7-4.41-10.35-11.24s-18.77-11-14.37-15.84a2.7,2.7,0,0,1,2.11-.83c6.7,0,22.53,14.75,22.53,14.75S48,153,50.61,153a1.52,1.52,0,0,0,1.43-.83C53.86,149,35,134.42,34,128.4,33.24,124.29,34.46,122.24,36.72,122.24Z"/><path class="cls-1" d="M81.28,175.6c5.8-8.73,5.38-15.29-2.59-23.44s-12.63-20.09-12.63-20.09-1.74-6.93-5.69-6.27-6.85,11,1.44,17.31S60.16,153.75,57,147.8s-11.88-21.22-16.41-24.17-7.66-1.29-6.61,4.76S53.88,149,52,152.16s-8.29-3.68-8.29-3.68-20.22-18.83-24.65-13.93,3.36,9,14.38,15.84S45.39,159,43.82,161.62s-26-18.44-28.23-9.51,24.87,11.46,23.2,17.62S19.64,158.1,16.1,165,40.72,180.1,41,180.17c9.09,2.41,32.24,7.54,40.33-4.58Z"/><path class="cls-2" d="M163.28,113.59a10.86,10.86,0,0,1,8.6,4,13.13,13.13,0,0,1,2.82,8.12,14.63,14.63,0,0,1,4.11-.64,11,11,0,0,1,8.33,3.59,12.75,12.75,0,0,1,1.69,15.13,11.38,11.38,0,0,1,3.76,6.09,12.8,12.8,0,0,1-1.69,10.24,11.47,11.47,0,0,1,.78,10.85c-2.16,5-7.54,9-18,13.19-6.5,2.63-12.47,4.32-12.52,4.34A92.08,92.08,0,0,1,138.09,192c-12.39,0-21.25-3.89-26.34-11.54-8.2-12.3-7-23.56,3.59-34.41,5.88-6,9.79-14.84,10.6-16.79,1.65-5.75,6-12.15,13.18-12.15a12,12,0,0,1,9.72,5.32,28.1,28.1,0,0,1,6.07-6.1,15.35,15.35,0,0,1,8.37-2.74Zm0,8.65a7.65,7.65,0,0,0-3.84,1.39c-4.51,3-13.22,18.23-16.41,24.17a5.11,5.11,0,0,1-4.52,2.83c-3.25,0-5.82-3.3-.3-7.52,8.27-6.33,5.37-16.69,1.42-17.31a4.4,4.4,0,0,0-.51,0c-3.6,0-5.18,6.34-5.18,6.34s-4.65,11.93-12.61,20.09-8.41,14.71-2.59,23.42c4,5.94,11.58,7.73,19.35,7.73,8.07,0,16.33-1.94,21-3.15.21-.07,28.43-8.22,24.85-15.13a2.93,2.93,0,0,0-2.83-1.65c-5,0-14.17,7.65-18.11,7.65a1.62,1.62,0,0,1-1.76-1.29c-1.68-6.16,25.47-8.75,23.19-17.66a2.76,2.76,0,0,0-3-2.2c-6.63,0-21.55,11.95-24.69,11.95a.54.54,0,0,1-.48-.21c-1.57-2.6-.72-4.41,10.31-11.24s18.81-11,14.37-15.84a2.58,2.58,0,0,0-2.07-.83c-6.72,0-22.55,14.75-22.55,14.75S152,153,149.41,153a1.52,1.52,0,0,1-1.43-.83c-1.84-3.15,17-17.76,18.07-23.78.72-4.11-.52-6.16-2.77-6.16Z"/><path class="cls-1" d="M118.74,175.6c-5.8-8.73-5.4-15.29,2.59-23.44s12.6-20.09,12.6-20.09,1.75-6.93,5.72-6.27,6.82,11-1.44,17.31,1.65,10.64,4.82,4.69,11.9-21.22,16.41-24.17,7.68-1.29,6.61,4.76S146.14,149,148,152.16s8.28-3.68,8.28-3.68,20.26-18.83,24.65-13.92-3.34,9-14.38,15.84-11.9,8.64-10.35,11.23,26-18.43,28.23-9.51-24.85,11.46-23.18,17.62,19.12-11.63,22.69-4.71-24.62,15.08-24.85,15.15c-9.11,2.41-32.25,7.54-40.33-4.58Z"/></svg>