<svg id="图层_1" data-name="图层 1" xmlns="http://www.w3.org/2000/svg" xmlns:xlink="http://www.w3.org/1999/xlink" viewBox="0 0 2500 2500"><defs><style>.cls-1{fill:#0081fb;}.cls-2{fill:url(#未命名的渐变);}.cls-3{fill:url(#未命名的渐变_2);}</style><linearGradient id="未命名的渐变" x1="283.57" y1="2169" x2="481.57" y2="2179" gradientTransform="translate(-1922.51 -17643.97) scale(8.69)" gradientUnits="userSpaceOnUse"><stop offset="0" stop-color="#0064e1"/><stop offset="0.4" stop-color="#0064e1"/><stop offset="0.83" stop-color="#0073ee"/><stop offset="1" stop-color="#0082fb"/></linearGradient><linearGradient id="未命名的渐变_2" x1="262.66" y1="2217.45" x2="262.66" y2="2144.45" gradientTransform="translate(-1922.51 -17643.97) scale(8.69)" gradientUnits="userSpaceOnUse"><stop offset="0" stop-color="#0082fb"/><stop offset="1" stop-color="#0064e0"/></linearGradient></defs><title>meta-1-撑满</title><path class="cls-1" d="M270.21,1515.08c0,95.6,20.94,168.69,48.32,213a165.16,165.16,0,0,0,144,82.48c70.4,0,134.8-17.39,258.91-189.12C820.88,1483.88,938,1291.2,1017,1169.52l133.49-205.11c92.74-142.45,199.9-300.8,323.14-408.48C1574,468.67,1682.34,420,1791.41,420c183.12,0,357.55,106.12,491.05,305.14,146.1,218,217.28,492.53,217.28,775.86,0,168.43-33.2,292.19-89.7,390-54.49,94.56-161.22,189-340.17,189V1810.58c153.23,0,191.21-140.8,191.21-301.93,0-229.62-53.54-484.44-171.48-666.52C2005.91,713,1897.44,634.06,1778.11,634.06c-129.06,0-232.92,97.34-349.64,270.9-62,92.22-125.76,204.59-197.29,331.39l-78.74,139.06c-158.18,280.46-198.24,344.34-277.33,449.77C736.75,2010.47,618.37,2080,462.54,2080c-184.86,0-301.75-80-373.71-200.68C29.29,1781,.26,1652.05.26,1505.08Z"/><path class="cls-2" d="M213.11,744.18C336.87,553.41,515.47,420,720.32,420c118.63,0,236.57,34.76,359.73,135.67,134.71,109.94,278.11,291,457.41,589.34l64.23,107.08c155,258.3,243.35,391.1,294.88,453.84,66.4,80.48,113,104.3,173.3,104.3,153.23,0,191.21-140.8,191.21-301.93l238.14-7.48c0,168.44-33.2,292.2-89.7,390-54,94.74-160.7,189.21-339.65,189.21-111.24,0-209.8-24.16-318.78-127-83.79-78.91-181.74-219.1-257.09-345.12l-224.14-374.41c-112.46-187.9-215.63-328-275.33-391.1-64.32-68.58-146.8-151-278.55-151-106.64,0-197.21,74.83-273,189.3Z"/><path class="cls-3" d="M716,691.42c-106.64,0-197.21,74.83-273,189.3-107.16,161.74-172.78,402.65-172.78,634.36,0,95.6,20.94,168.69,48.32,213L88.39,1879.32C29.29,1781,.26,1652.05.26,1505.08c0-267.25,73.36-545.8,212.85-760.9C336.87,553.41,515.47,420,720.32,420Z"/></svg>